<svg xmlns="http://www.w3.org/2000/svg" width="180" height="28.285714285714285" fill="none" viewBox="0 0 140 22"><path fill="currentColor" d="M18.636 14.47q0 3.586-2.436 5.498-2.435 1.91-7.131 1.91-4.26 0-6.576-1.868Q.176 18.145 0 14.587h3.558q.234 2.232 1.576 3.187 1.341.954 4.14.953 3.12 0 4.49-.962 1.372-.964 1.371-3.272V.122h3.5zM47.126.121h-3.501v21.723h3.5zM84.671 8.11 95.47.122h-5.052L75.633 11.059V.122h-3.5v21.72h3.5v-7.01l6.389-4.69 10.662 11.7h4.497zm32.992 1.413c.383-1.38 1.192-3.057 2.427-4.065q2.688-2.193 6.962-2.195 3.906 0 6.537 1.926c1.442 1.056 2.372 2.825 2.791 4.334h3.616c-.459-2.403-1.781-4.926-3.975-6.598Q132.404.151 127.053.152c-3.567 0-6.546.923-9 2.773-2.209 1.672-3.54 4.195-4.001 6.598h3.612m18.723 2.948c-.383 1.38-1.192 3.057-2.426 4.065q-2.689 2.193-6.962 2.194-3.907 0-6.537-1.925c-1.443-1.056-2.372-2.825-2.792-4.334h-3.615c.458 2.403 1.78 4.926 3.974 6.598q3.623 2.774 8.97 2.773c3.564 0 6.546-.923 8.999-2.773 2.209-1.672 3.54-4.195 4.002-6.598h-3.613"></path></svg>