<svg width="434" height="69" viewBox="0 0 434 69" fill="none" xmlns="http://www.w3.org/2000/svg">
<g clip-path="url(#clip0_3_28)">
<path d="M57.7315 45.5023C57.7315 53.0828 55.2165 58.9022 50.1864 62.9413C45.1564 66.9804 37.789 69 28.0936 69C19.2957 69 12.5079 67.0283 7.72098 63.0753C2.93404 59.1319 0.362922 53.3987 -0.00170898 45.8756H11.0214C11.5075 50.5943 13.125 53.9634 15.9018 55.9829C18.6693 58.0025 22.9513 59.0075 28.7293 59.0075C35.1711 59.0075 39.8085 57.9929 42.6414 55.9542C45.4743 53.9155 46.8861 50.4603 46.8861 45.5789V0H57.7315V45.5023ZM145.991 0H135.145V68.8947H145.991V0ZM262.308 25.3354L295.761 0H280.11L234.306 34.6866V0H223.461V68.8851H234.306V46.6509L254.099 31.7769L287.131 68.8851H301.062L262.308 25.3354ZM364.517 29.8148C365.704 25.4407 368.21 20.119 372.034 16.9222C377.587 12.2896 384.777 9.9638 393.603 9.9638C401.672 9.9638 408.422 12.0025 413.854 16.0703C418.323 19.4203 421.203 25.0291 422.503 29.8148H433.703C432.282 22.196 428.187 14.1943 421.39 8.8918C413.92 3.02455 404.654 0.0957137 393.603 0.0957137C382.552 0.0957137 373.324 3.02455 365.723 8.8918C358.879 14.1943 354.756 22.196 353.326 29.8148H364.508H364.517ZM422.521 39.166C421.334 43.5402 418.828 48.8618 415.004 52.0587C409.451 56.6912 402.261 59.0171 393.435 59.0171C385.366 59.0171 378.616 56.9784 373.184 52.9105C368.715 49.5606 365.835 43.9517 364.536 39.166H353.335C354.756 46.7849 358.851 54.7865 365.648 60.0891C373.128 65.9563 382.393 68.8851 393.435 68.8851C404.477 68.8851 413.714 65.9563 421.315 60.0891C428.159 54.7865 432.282 46.7849 433.713 39.166H422.531H422.521Z" fill="#183085"></path>
</g>
<defs>
<clipPath id="clip0_3_28">
<rect width="433.714" height="69" fill="white"></rect>
</clipPath>
</defs>
</svg>