<?xml version="1.0"?>
<svg xmlns="http://www.w3.org/2000/svg" viewBox="0 0 813 846" fill="none">
  <path d="M57.4922 80.1814v87.7196c0 14.83 12.0224 26.852 26.8528 26.852h176.334c14.83 0 26.852 12.023 26.852 26.853v175.439c0 14.83-12.022 26.853-26.852 26.853H84.345c-14.8304 0-26.8528 12.022-26.8528 26.852v290.906c0 14.83 12.0224 26.853 26.8528 26.853h61.761c14.831 0 26.853-12.023 26.853-26.853V565.322c0-14.83 12.023-26.852 26.853-26.852h87.719" stroke="url(#paint0_linear_1137_4288)" stroke-width=".895094"></path>
  <path d="M58.3906 310.221H375.254c14.83 0 26.853-12.023 26.853-26.853V107.034c0-14.8302 12.022-26.8526 26.853-26.8526h60.866c14.83 0 26.853 12.0224 26.853 26.8526v175.439c0 14.83 12.022 26.853 26.853 26.853h59.971c14.83 0 26.853 12.022 26.853 26.852v175.439c0 14.83 12.022 26.853 26.853 26.853h88.614" stroke="url(#paint1_linear_1137_4288)" stroke-width=".895094"></path>
  <path d="M746.719 81.0762V167.9c0 14.831-12.022 26.853-26.853 26.853H657.21c-14.831 0-26.853 12.023-26.853 26.853v404.583c0 14.83 12.022 26.852 26.853 26.852h62.656c14.831 0 26.853 12.023 26.853 26.853v61.762c0 14.83-12.022 26.853-26.853 26.853H543.533c-14.831 0-26.853-12.023-26.853-26.853v-61.762c0-14.83-12.023-26.853-26.853-26.853h-60.866c-14.831 0-26.853-12.022-26.853-26.852v-60.867c0-14.83-12.023-26.853-26.853-26.853h-88.614" stroke="url(#paint2_linear_1137_4288)" stroke-width=".895094"></path>
  <path d="M288.433 768.509v-88.614c0-14.831 12.022-26.853 26.852-26.853h174.544c14.83 0 26.853-12.023 26.853-26.853V337.073c0-14.83-12.023-26.852-26.853-26.852H199.714c-14.79 0-26.795-11.959-26.853-26.749l-.686-176.333c-.058-14.8714 11.982-26.9576 26.853-26.9576h88.509" stroke="url(#paint3_linear_1137_4288)" stroke-width=".895094"></path>
  <path d="M287.535 539.365v-87.72c0-14.83 12.023-26.852 26.853-26.852h175.438c14.831 0 26.853-12.023 26.853-26.853v-88.615" stroke="url(#paint4_linear_1137_4288)" stroke-width=".895094"></path>
  <rect x="1.22586" y="1.08402" width="116.12" height="116.12" rx="22.9494" fill="url(#paint5_linear_1137_4288)"></rect>
  <rect x="1.22586" y="1.08402" width="116.12" height="116.12" rx="22.9494" stroke="url(#paint6_linear_1137_4288)" stroke-width="1.54827"></rect>
  <g style="mix-blend-mode:overlay">
    <mask id="mask0_1137_4288" style="mask-type:alpha" maskUnits="userSpaceOnUse" x="1" y="65" width="116" height="42">
      <path d="M89.4065 83.1956c5.4371-4.4533 8.9997-11.8665 10.6875-17.9598H116.007c-2.034 10.6132-7.897 21.7597-17.6274 29.1462-10.8076 8.173-23.9416 12.253-39.6412 12.253-15.6996 0-28.8735-4.08-39.5082-12.253C9.56578 86.9955 3.74327 75.849 1.72266 65.2358H17.6482c1.8478 6.6666 5.9422 14.4798 12.2965 19.1464 7.7235 5.6666 17.3214 8.5065 28.7937 8.5065 12.5491 0 22.7718-3.2399 30.6681-9.6931Z" fill="url(#paint7_linear_1137_4288)"></path>
    </mask>
    <g mask="url(#mask0_1137_4288)">
      <path fill="#fff" fill-opacity=".8" d="M-8.35938 56.6267h135.038V115.35h-135.038z"></path>
    </g>
    <mask id="mask1_1137_4288" style="mask-type:alpha" maskUnits="userSpaceOnUse" x="1" y="10" width="115" height="43">
      <path d="M28.3151 34.2519c-5.437 4.4532-8.9997 11.8665-10.688 17.9597H1.71484C3.74875 41.5984 9.61119 30.4519 19.342 23.0654c10.8076-8.1732 23.9283-12.2531 39.6412-12.2531 15.7129 0 28.8868 4.0799 39.5083 12.2531 9.6645 7.3865 15.4865 18.533 17.5075 29.1462h-15.926c-1.8474-6.6666-5.9418-14.4798-12.2961-19.1464-7.7235-5.6665-17.3214-8.5065-28.7937-8.5065-12.5491 0-22.7717 3.24-30.6681 9.6932Z" fill="url(#paint8_linear_1137_4288)"></path>
    </mask>
    <g mask="url(#mask1_1137_4288)">
      <path fill="#fff" fill-opacity=".8" d="M-9.375-7.78809h130.381v69.5884H-9.375z"></path>
    </g>
  </g>
  <rect x="230.37" y="1.08402" width="116.12" height="116.12" rx="22.9494" fill="url(#paint9_linear_1137_4288)"></rect>
  <rect x="230.37" y="1.08402" width="116.12" height="116.12" rx="22.9494" stroke="url(#paint10_linear_1137_4288)" stroke-width="1.54827"></rect>
  <g style="mix-blend-mode:overlay">
    <mask id="mask2_1137_4288" style="mask-type:alpha" maskUnits="userSpaceOnUse" x="230" y="65" width="116" height="42">
      <path d="M318.551 83.1956c5.437-4.4533 9-11.8665 10.688-17.9598H345.151c-2.034 10.6132-7.896 21.7597-17.627 29.1462-10.807 8.173-23.941 12.253-39.641 12.253s-28.874-4.08-39.508-12.253c-9.665-7.3865-15.487-18.533-17.508-29.1462h15.926c1.848 6.6666 5.942 14.4798 12.296 19.1464 7.724 5.6666 17.322 8.5065 28.794 8.5065 12.549 0 22.772-3.2399 30.668-9.6931Z" fill="url(#paint11_linear_1137_4288)"></path>
    </mask>
    <g mask="url(#mask2_1137_4288)">
      <path fill="#fff" fill-opacity=".8" d="M220.785 56.6267h135.038V115.35H220.785z"></path>
    </g>
    <mask id="mask3_1137_4288" style="mask-type:alpha" maskUnits="userSpaceOnUse" x="230" y="10" width="116" height="43">
      <path d="M257.46 34.2519c-5.437 4.4532-9 11.8665-10.688 17.9597H230.859c2.034-10.6132 7.897-21.7597 17.628-29.1462 10.807-8.1732 23.928-12.2531 39.641-12.2531 15.713 0 28.887 4.0799 39.508 12.2531 9.664 7.3865 15.487 18.533 17.508 29.1462h-15.926c-1.848-6.6666-5.942-14.4798-12.297-19.1464-7.723-5.6665-17.321-8.5065-28.793-8.5065-12.549 0-22.772 3.24-30.668 9.6932Z" fill="url(#paint12_linear_1137_4288)"></path>
    </mask>
    <g mask="url(#mask3_1137_4288)">
      <path fill="#fff" fill-opacity=".8" d="M219.77-7.78809h130.381v69.5884H219.77z"></path>
    </g>
  </g>
  <rect x="459.515" y="1.08402" width="116.12" height="116.12" rx="22.9494" fill="url(#paint13_linear_1137_4288)"></rect>
  <rect x="459.515" y="1.08402" width="116.12" height="116.12" rx="22.9494" stroke="url(#paint14_linear_1137_4288)" stroke-width="1.54827"></rect>
  <g style="mix-blend-mode:overlay">
    <mask id="mask4_1137_4288" style="mask-type:alpha" maskUnits="userSpaceOnUse" x="460" y="65" width="115" height="42">
      <path d="M547.696 83.1956c5.437-4.4533 8.999-11.8665 10.688-17.9598H574.296c-2.034 10.6132-7.896 21.7597-17.627 29.1462-10.808 8.173-23.942 12.253-39.642 12.253-15.699 0-28.873-4.08-39.508-12.253-9.664-7.3865-15.487-18.533-17.507-29.1462h15.925c1.848 6.6666 5.942 14.4798 12.297 19.1464 7.723 5.6666 17.321 8.5065 28.793 8.5065 12.55 0 22.772-3.2399 30.669-9.6931Z" fill="url(#paint15_linear_1137_4288)"></path>
    </mask>
    <g mask="url(#mask4_1137_4288)">
      <path fill="#fff" fill-opacity=".8" d="M449.93 56.6267h135.038V115.35H449.93z"></path>
    </g>
    <mask id="mask5_1137_4288" style="mask-type:alpha" maskUnits="userSpaceOnUse" x="460" y="10" width="115" height="43">
      <path d="M486.604 34.2519c-5.437 4.4532-9 11.8665-10.688 17.9597H460.004c2.034-10.6132 7.896-21.7597 17.627-29.1462 10.808-8.1732 23.928-12.2531 39.641-12.2531 15.713 0 28.887 4.0799 39.509 12.2531 9.664 7.3865 15.486 18.533 17.507 29.1462h-15.926c-1.847-6.6666-5.942-14.4798-12.296-19.1464-7.724-5.6665-17.321-8.5065-28.794-8.5065-12.549 0-22.771 3.24-30.668 9.6932Z" fill="url(#paint16_linear_1137_4288)"></path>
    </mask>
    <g mask="url(#mask5_1137_4288)">
      <path fill="#fff" fill-opacity=".8" d="M448.914-7.78809h130.381v69.5884H448.914z"></path>
    </g>
  </g>
  <rect x="688.659" y="1.08402" width="116.12" height="116.12" rx="22.9494" fill="url(#paint17_linear_1137_4288)"></rect>
  <rect x="688.659" y="1.08402" width="116.12" height="116.12" rx="22.9494" stroke="url(#paint18_linear_1137_4288)" stroke-width="1.54827"></rect>
  <g style="mix-blend-mode:overlay">
    <mask id="mask6_1137_4288" style="mask-type:alpha" maskUnits="userSpaceOnUse" x="689" y="65" width="115" height="42">
      <path d="M776.84 83.1956c5.437-4.4533 9-11.8665 10.688-17.9598H803.44c-2.033 10.6132-7.896 21.7597-17.627 29.1462-10.807 8.173-23.941 12.253-39.641 12.253s-28.873-4.08-39.508-12.253c-9.665-7.3865-15.487-18.533-17.508-29.1462h15.926c1.848 6.6666 5.942 14.4798 12.296 19.1464 7.724 5.6666 17.322 8.5065 28.794 8.5065 12.549 0 22.772-3.2399 30.668-9.6931Z" fill="url(#paint19_linear_1137_4288)"></path>
    </mask>
    <g mask="url(#mask6_1137_4288)">
      <path fill="#fff" fill-opacity=".8" d="M679.074 56.6267h135.038V115.35H679.074z"></path>
    </g>
    <mask id="mask7_1137_4288" style="mask-type:alpha" maskUnits="userSpaceOnUse" x="689" y="10" width="115" height="43">
      <path d="M715.749 34.2519c-5.437 4.4532-9 11.8665-10.688 17.9597H689.148c2.034-10.6132 7.897-21.7597 17.628-29.1462 10.807-8.1732 23.928-12.2531 39.641-12.2531 15.713 0 28.887 4.0799 39.508 12.2531 9.664 7.3865 15.487 18.533 17.508 29.1462h-15.926c-1.848-6.6666-5.942-14.4798-12.297-19.1464-7.723-5.6665-17.321-8.5065-28.793-8.5065-12.549 0-22.772 3.24-30.668 9.6932Z" fill="url(#paint20_linear_1137_4288)"></path>
    </mask>
    <g mask="url(#mask7_1137_4288)">
      <path fill="#fff" fill-opacity=".8" d="M678.059-7.78809H808.44v69.5884H678.059z"></path>
    </g>
  </g>
  <rect x="1.22586" y="243.656" width="116.12" height="116.12" rx="22.9494" fill="url(#paint21_linear_1137_4288)"></rect>
  <rect x="1.22586" y="243.656" width="116.12" height="116.12" rx="22.9494" stroke="url(#paint22_linear_1137_4288)" stroke-width="1.54827"></rect>
  <g style="mix-blend-mode:overlay">
    <mask id="mask8_1137_4288" style="mask-type:alpha" maskUnits="userSpaceOnUse" x="1" y="307" width="116" height="43">
      <path d="M89.4065 325.768c5.4371-4.454 8.9997-11.867 10.6875-17.96H116.007c-2.034 10.613-7.897 21.76-17.6274 29.146-10.8076 8.173-23.9416 12.253-39.6412 12.253-15.6996 0-28.8735-4.08-39.5082-12.253-9.66442-7.386-15.48693-18.533-17.50754-29.146H17.6482c1.8478 6.666 5.9422 14.48 12.2965 19.146 7.7235 5.667 17.3214 8.507 28.7937 8.507 12.5491 0 22.7718-3.24 30.6681-9.693Z" fill="url(#paint23_linear_1137_4288)"></path>
    </mask>
    <g mask="url(#mask8_1137_4288)">
      <path fill="#fff" fill-opacity=".8" d="M-8.35938 299.199h135.038v58.7233h-135.038z"></path>
    </g>
    <mask id="mask9_1137_4288" style="mask-type:alpha" maskUnits="userSpaceOnUse" x="1" y="253" width="115" height="42">
      <path d="M28.3151 276.824c-5.437 4.453-8.9997 11.866-10.688 17.96H1.71484c2.03391-10.614 7.89635-21.76 17.62716-29.147 10.8076-8.173 23.9283-12.253 39.6412-12.253 15.7129 0 28.8868 4.08 39.5083 12.253 9.6645 7.387 15.4865 18.533 17.5075 29.147h-15.926c-1.8474-6.667-5.9418-14.48-12.2961-19.147-7.7235-5.666-17.3214-8.506-28.7937-8.506-12.5491 0-22.7717 3.24-30.6681 9.693Z" fill="url(#paint24_linear_1137_4288)"></path>
    </mask>
    <g mask="url(#mask9_1137_4288)">
      <path fill="#fff" fill-opacity=".8" d="M-9.375 234.784h130.381v69.5884H-9.375z"></path>
    </g>
  </g>
  <rect x="230.37" y="243.656" width="116.12" height="116.12" rx="22.9494" fill="url(#paint25_linear_1137_4288)"></rect>
  <rect x="230.37" y="243.656" width="116.12" height="116.12" rx="22.9494" stroke="url(#paint26_linear_1137_4288)" stroke-width="1.54827"></rect>
  <g style="mix-blend-mode:overlay">
    <mask id="mask10_1137_4288" style="mask-type:alpha" maskUnits="userSpaceOnUse" x="230" y="307" width="116" height="43">
      <path d="M318.551 325.768c5.437-4.454 9-11.867 10.688-17.96H345.151c-2.034 10.613-7.896 21.76-17.627 29.146-10.807 8.173-23.941 12.253-39.641 12.253s-28.874-4.08-39.508-12.253c-9.665-7.386-15.487-18.533-17.508-29.146h15.926c1.848 6.666 5.942 14.48 12.296 19.146 7.724 5.667 17.322 8.507 28.794 8.507 12.549 0 22.772-3.24 30.668-9.693Z" fill="url(#paint27_linear_1137_4288)"></path>
    </mask>
    <g mask="url(#mask10_1137_4288)">
      <path fill="#fff" fill-opacity=".8" d="M220.785 299.199h135.038v58.7233H220.785z"></path>
    </g>
    <mask id="mask11_1137_4288" style="mask-type:alpha" maskUnits="userSpaceOnUse" x="230" y="253" width="116" height="42">
      <path d="M257.46 276.824c-5.437 4.453-9 11.866-10.688 17.96H230.859c2.034-10.614 7.897-21.76 17.628-29.147 10.807-8.173 23.928-12.253 39.641-12.253 15.713 0 28.887 4.08 39.508 12.253 9.664 7.387 15.487 18.533 17.508 29.147h-15.926c-1.848-6.667-5.942-14.48-12.297-19.147-7.723-5.666-17.321-8.506-28.793-8.506-12.549 0-22.772 3.24-30.668 9.693Z" fill="url(#paint28_linear_1137_4288)"></path>
    </mask>
    <g mask="url(#mask11_1137_4288)">
      <path fill="#fff" fill-opacity=".8" d="M219.77 234.784h130.381v69.5884H219.77z"></path>
    </g>
  </g>
  <rect x="459.515" y="243.656" width="116.12" height="116.12" rx="22.9494" fill="url(#paint29_linear_1137_4288)"></rect>
  <rect x="459.515" y="243.656" width="116.12" height="116.12" rx="22.9494" stroke="url(#paint30_linear_1137_4288)" stroke-width="1.54827"></rect>
  <g style="mix-blend-mode:overlay">
    <mask id="mask12_1137_4288" style="mask-type:alpha" maskUnits="userSpaceOnUse" x="460" y="307" width="115" height="43">
      <path d="M547.696 325.768c5.437-4.454 8.999-11.867 10.688-17.96H574.296c-2.034 10.613-7.896 21.76-17.627 29.146-10.808 8.173-23.942 12.253-39.642 12.253-15.699 0-28.873-4.08-39.508-12.253-9.664-7.386-15.487-18.533-17.507-29.146h15.925c1.848 6.666 5.942 14.48 12.297 19.146 7.723 5.667 17.321 8.507 28.793 8.507 12.55 0 22.772-3.24 30.669-9.693Z" fill="url(#paint31_linear_1137_4288)"></path>
    </mask>
    <g mask="url(#mask12_1137_4288)">
      <path fill="#fff" fill-opacity=".8" d="M449.93 299.199h135.038v58.7233H449.93z"></path>
    </g>
    <mask id="mask13_1137_4288" style="mask-type:alpha" maskUnits="userSpaceOnUse" x="460" y="253" width="115" height="42">
      <path d="M486.604 276.824c-5.437 4.453-9 11.866-10.688 17.96H460.004c2.034-10.614 7.896-21.76 17.627-29.147 10.808-8.173 23.928-12.253 39.641-12.253 15.713 0 28.887 4.08 39.509 12.253 9.664 7.387 15.486 18.533 17.507 29.147h-15.926c-1.847-6.667-5.942-14.48-12.296-19.147-7.724-5.666-17.321-8.506-28.794-8.506-12.549 0-22.771 3.24-30.668 9.693Z" fill="url(#paint32_linear_1137_4288)"></path>
    </mask>
    <g mask="url(#mask13_1137_4288)">
      <path fill="#fff" fill-opacity=".8" d="M448.914 234.784h130.381v69.5884H448.914z"></path>
    </g>
  </g>
  <rect x="688.659" y="243.656" width="116.12" height="116.12" rx="22.9494" fill="url(#paint33_linear_1137_4288)"></rect>
  <rect x="688.659" y="243.656" width="116.12" height="116.12" rx="22.9494" stroke="url(#paint34_linear_1137_4288)" stroke-width="1.54827"></rect>
  <g style="mix-blend-mode:overlay">
    <mask id="mask14_1137_4288" style="mask-type:alpha" maskUnits="userSpaceOnUse" x="689" y="307" width="115" height="43">
      <path d="M776.84 325.768c5.437-4.454 9-11.867 10.688-17.96H803.44c-2.033 10.613-7.896 21.76-17.627 29.146-10.807 8.173-23.941 12.253-39.641 12.253s-28.873-4.08-39.508-12.253c-9.665-7.386-15.487-18.533-17.508-29.146h15.926c1.848 6.666 5.942 14.48 12.296 19.146 7.724 5.667 17.322 8.507 28.794 8.507 12.549 0 22.772-3.24 30.668-9.693Z" fill="url(#paint35_linear_1137_4288)"></path>
    </mask>
    <g mask="url(#mask14_1137_4288)">
      <path fill="#fff" fill-opacity=".8" d="M679.074 299.199h135.038v58.7233H679.074z"></path>
    </g>
    <mask id="mask15_1137_4288" style="mask-type:alpha" maskUnits="userSpaceOnUse" x="689" y="253" width="115" height="42">
      <path d="M715.749 276.824c-5.437 4.453-9 11.866-10.688 17.96H689.148c2.034-10.614 7.897-21.76 17.628-29.147 10.807-8.173 23.928-12.253 39.641-12.253 15.713 0 28.887 4.08 39.508 12.253 9.664 7.387 15.487 18.533 17.508 29.147h-15.926c-1.848-6.667-5.942-14.48-12.297-19.147-7.723-5.666-17.321-8.506-28.793-8.506-12.549 0-22.772 3.24-30.668 9.693Z" fill="url(#paint36_linear_1137_4288)"></path>
    </mask>
    <g mask="url(#mask15_1137_4288)">
      <path fill="#fff" fill-opacity=".8" d="M678.059 234.784H808.44v69.5884H678.059z"></path>
    </g>
  </g>
  <rect x="1.22586" y="486.228" width="116.12" height="116.12" rx="22.9494" fill="url(#paint37_linear_1137_4288)"></rect>
  <rect x="1.22586" y="486.228" width="116.12" height="116.12" rx="22.9494" stroke="url(#paint38_linear_1137_4288)" stroke-width="1.54827"></rect>
  <g style="mix-blend-mode:overlay">
    <mask id="mask16_1137_4288" style="mask-type:alpha" maskUnits="userSpaceOnUse" x="1" y="550" width="116" height="42">
      <path d="M89.4065 568.34c5.4371-4.454 8.9997-11.867 10.6875-17.96H116.007c-2.034 10.613-7.897 21.76-17.6274 29.146-10.8076 8.173-23.9416 12.253-39.6412 12.253-15.6996 0-28.8735-4.08-39.5082-12.253-9.66442-7.386-15.48693-18.533-17.50754-29.146H17.6482c1.8478 6.666 5.9422 14.48 12.2965 19.146 7.7235 5.667 17.3214 8.507 28.7937 8.507 12.5491 0 22.7718-3.24 30.6681-9.693Z" fill="url(#paint39_linear_1137_4288)"></path>
    </mask>
    <g mask="url(#mask16_1137_4288)">
      <path fill="#fff" fill-opacity=".8" d="M-8.35938 541.771h135.038v58.7233h-135.038z"></path>
    </g>
    <mask id="mask17_1137_4288" style="mask-type:alpha" maskUnits="userSpaceOnUse" x="1" y="495" width="115" height="43">
      <path d="M28.3151 519.396c-5.437 4.453-8.9997 11.866-10.688 17.96H1.71484c2.03391-10.614 7.89635-21.76 17.62716-29.147 10.8076-8.173 23.9283-12.253 39.6412-12.253 15.7129 0 28.8868 4.08 39.5083 12.253 9.6645 7.387 15.4865 18.533 17.5075 29.147h-15.926c-1.8474-6.667-5.9418-14.48-12.2961-19.147-7.7235-5.666-17.3214-8.506-28.7937-8.506-12.5491 0-22.7717 3.24-30.6681 9.693Z" fill="url(#paint40_linear_1137_4288)"></path>
    </mask>
    <g mask="url(#mask17_1137_4288)">
      <path fill="#fff" fill-opacity=".8" d="M-9.375 477.356h130.381v69.5884H-9.375z"></path>
    </g>
  </g>
  <rect x="230.37" y="486.228" width="116.12" height="116.12" rx="22.9494" fill="url(#paint41_linear_1137_4288)"></rect>
  <rect x="230.37" y="486.228" width="116.12" height="116.12" rx="22.9494" stroke="url(#paint42_linear_1137_4288)" stroke-width="1.54827"></rect>
  <g style="mix-blend-mode:overlay">
    <mask id="mask18_1137_4288" style="mask-type:alpha" maskUnits="userSpaceOnUse" x="230" y="550" width="116" height="42">
      <path d="M318.551 568.34c5.437-4.454 9-11.867 10.688-17.96H345.151c-2.034 10.613-7.896 21.76-17.627 29.146-10.807 8.173-23.941 12.253-39.641 12.253s-28.874-4.08-39.508-12.253c-9.665-7.386-15.487-18.533-17.508-29.146h15.926c1.848 6.666 5.942 14.48 12.296 19.146 7.724 5.667 17.322 8.507 28.794 8.507 12.549 0 22.772-3.24 30.668-9.693Z" fill="url(#paint43_linear_1137_4288)"></path>
    </mask>
    <g mask="url(#mask18_1137_4288)">
      <path fill="#fff" fill-opacity=".8" d="M220.785 541.771h135.038v58.7233H220.785z"></path>
    </g>
    <mask id="mask19_1137_4288" style="mask-type:alpha" maskUnits="userSpaceOnUse" x="230" y="495" width="116" height="43">
      <path d="M257.46 519.396c-5.437 4.453-9 11.866-10.688 17.96H230.859c2.034-10.614 7.897-21.76 17.628-29.147 10.807-8.173 23.928-12.253 39.641-12.253 15.713 0 28.887 4.08 39.508 12.253 9.664 7.387 15.487 18.533 17.508 29.147h-15.926c-1.848-6.667-5.942-14.48-12.297-19.147-7.723-5.666-17.321-8.506-28.793-8.506-12.549 0-22.772 3.24-30.668 9.693Z" fill="url(#paint44_linear_1137_4288)"></path>
    </mask>
    <g mask="url(#mask19_1137_4288)">
      <path fill="#fff" fill-opacity=".8" d="M219.77 477.356h130.381v69.5884H219.77z"></path>
    </g>
  </g>
  <rect x="459.515" y="486.228" width="116.12" height="116.12" rx="22.9494" fill="url(#paint45_linear_1137_4288)"></rect>
  <rect x="459.515" y="486.228" width="116.12" height="116.12" rx="22.9494" stroke="url(#paint46_linear_1137_4288)" stroke-width="1.54827"></rect>
  <g style="mix-blend-mode:overlay">
    <mask id="mask20_1137_4288" style="mask-type:alpha" maskUnits="userSpaceOnUse" x="460" y="550" width="115" height="42">
      <path d="M547.696 568.34c5.437-4.454 8.999-11.867 10.688-17.96H574.296c-2.034 10.613-7.896 21.76-17.627 29.146-10.808 8.173-23.942 12.253-39.642 12.253-15.699 0-28.873-4.08-39.508-12.253-9.664-7.386-15.487-18.533-17.507-29.146h15.925c1.848 6.666 5.942 14.48 12.297 19.146 7.723 5.667 17.321 8.507 28.793 8.507 12.55 0 22.772-3.24 30.669-9.693Z" fill="url(#paint47_linear_1137_4288)"></path>
    </mask>
    <g mask="url(#mask20_1137_4288)">
      <path fill="#fff" fill-opacity=".8" d="M449.93 541.771h135.038v58.7233H449.93z"></path>
    </g>
    <mask id="mask21_1137_4288" style="mask-type:alpha" maskUnits="userSpaceOnUse" x="460" y="495" width="115" height="43">
      <path d="M486.604 519.396c-5.437 4.453-9 11.866-10.688 17.96H460.004c2.034-10.614 7.896-21.76 17.627-29.147 10.808-8.173 23.928-12.253 39.641-12.253 15.713 0 28.887 4.08 39.509 12.253 9.664 7.387 15.486 18.533 17.507 29.147h-15.926c-1.847-6.667-5.942-14.48-12.296-19.147-7.724-5.666-17.321-8.506-28.794-8.506-12.549 0-22.771 3.24-30.668 9.693Z" fill="url(#paint48_linear_1137_4288)"></path>
    </mask>
    <g mask="url(#mask21_1137_4288)">
      <path fill="#fff" fill-opacity=".8" d="M448.914 477.356h130.381v69.5884H448.914z"></path>
    </g>
  </g>
  <rect x="688.659" y="486.228" width="116.12" height="116.12" rx="22.9494" fill="url(#paint49_linear_1137_4288)"></rect>
  <rect x="688.659" y="486.228" width="116.12" height="116.12" rx="22.9494" stroke="url(#paint50_linear_1137_4288)" stroke-width="1.54827"></rect>
  <g style="mix-blend-mode:overlay">
    <mask id="mask22_1137_4288" style="mask-type:alpha" maskUnits="userSpaceOnUse" x="689" y="550" width="115" height="42">
      <path d="M776.84 568.34c5.437-4.454 9-11.867 10.688-17.96H803.44c-2.033 10.613-7.896 21.76-17.627 29.146-10.807 8.173-23.941 12.253-39.641 12.253s-28.873-4.08-39.508-12.253c-9.665-7.386-15.487-18.533-17.508-29.146h15.926c1.848 6.666 5.942 14.48 12.296 19.146 7.724 5.667 17.322 8.507 28.794 8.507 12.549 0 22.772-3.24 30.668-9.693Z" fill="url(#paint51_linear_1137_4288)"></path>
    </mask>
    <g mask="url(#mask22_1137_4288)">
      <path fill="#fff" fill-opacity=".8" d="M679.074 541.771h135.038v58.7233H679.074z"></path>
    </g>
    <mask id="mask23_1137_4288" style="mask-type:alpha" maskUnits="userSpaceOnUse" x="689" y="495" width="115" height="43">
      <path d="M715.749 519.396c-5.437 4.453-9 11.866-10.688 17.96H689.148c2.034-10.614 7.897-21.76 17.628-29.147 10.807-8.173 23.928-12.253 39.641-12.253 15.713 0 28.887 4.08 39.508 12.253 9.664 7.387 15.487 18.533 17.508 29.147h-15.926c-1.848-6.667-5.942-14.48-12.297-19.147-7.723-5.666-17.321-8.506-28.793-8.506-12.549 0-22.772 3.24-30.668 9.693Z" fill="url(#paint52_linear_1137_4288)"></path>
    </mask>
    <g mask="url(#mask23_1137_4288)">
      <path fill="#fff" fill-opacity=".8" d="M678.059 477.356H808.44v69.5884H678.059z"></path>
    </g>
  </g>
  <rect x="1.22586" y="728.8" width="116.12" height="116.12" rx="22.9494" fill="url(#paint53_linear_1137_4288)"></rect>
  <rect x="1.22586" y="728.8" width="116.12" height="116.12" rx="22.9494" stroke="url(#paint54_linear_1137_4288)" stroke-width="1.54827"></rect>
  <g style="mix-blend-mode:overlay">
    <mask id="mask24_1137_4288" style="mask-type:alpha" maskUnits="userSpaceOnUse" x="1" y="792" width="116" height="43">
      <path d="M89.4065 810.912c5.4371-4.454 8.9997-11.867 10.6875-17.96H116.007c-2.034 10.613-7.897 21.76-17.6274 29.146-10.8076 8.173-23.9416 12.253-39.6412 12.253-15.6996 0-28.8735-4.08-39.5082-12.253-9.66442-7.386-15.48693-18.533-17.50754-29.146H17.6482c1.8478 6.666 5.9422 14.48 12.2965 19.146 7.7235 5.667 17.3214 8.507 28.7937 8.507 12.5491 0 22.7718-3.24 30.6681-9.693Z" fill="url(#paint55_linear_1137_4288)"></path>
    </mask>
    <g mask="url(#mask24_1137_4288)">
      <path fill="#fff" fill-opacity=".8" d="M-8.35938 784.343h135.038v58.7233h-135.038z"></path>
    </g>
    <mask id="mask25_1137_4288" style="mask-type:alpha" maskUnits="userSpaceOnUse" x="1" y="738" width="115" height="42">
      <path d="M28.3151 761.968c-5.437 4.453-8.9997 11.866-10.688 17.96H1.71484c2.03391-10.613 7.89635-21.76 17.62716-29.147 10.8076-8.173 23.9283-12.253 39.6412-12.253 15.7129 0 28.8868 4.08 39.5083 12.253 9.6645 7.387 15.4865 18.534 17.5075 29.147h-15.926c-1.8474-6.667-5.9418-14.48-12.2961-19.147-7.7235-5.666-17.3214-8.506-28.7937-8.506-12.5491 0-22.7717 3.24-30.6681 9.693Z" fill="url(#paint56_linear_1137_4288)"></path>
    </mask>
    <g mask="url(#mask25_1137_4288)">
      <path fill="#fff" fill-opacity=".8" d="M-9.375 719.928h130.381v69.5884H-9.375z"></path>
    </g>
  </g>
  <rect x="230.37" y="728.8" width="116.12" height="116.12" rx="22.9494" fill="url(#paint57_linear_1137_4288)"></rect>
  <rect x="230.37" y="728.8" width="116.12" height="116.12" rx="22.9494" stroke="url(#paint58_linear_1137_4288)" stroke-width="1.54827"></rect>
  <g style="mix-blend-mode:overlay">
    <mask id="mask26_1137_4288" style="mask-type:alpha" maskUnits="userSpaceOnUse" x="230" y="792" width="116" height="43">
      <path d="M318.551 810.912c5.437-4.454 9-11.867 10.688-17.96H345.151c-2.034 10.613-7.896 21.76-17.627 29.146-10.807 8.173-23.941 12.253-39.641 12.253s-28.874-4.08-39.508-12.253c-9.665-7.386-15.487-18.533-17.508-29.146h15.926c1.848 6.666 5.942 14.48 12.296 19.146 7.724 5.667 17.322 8.507 28.794 8.507 12.549 0 22.772-3.24 30.668-9.693Z" fill="url(#paint59_linear_1137_4288)"></path>
    </mask>
    <g mask="url(#mask26_1137_4288)">
      <path fill="#fff" fill-opacity=".8" d="M220.785 784.343h135.038v58.7233H220.785z"></path>
    </g>
    <mask id="mask27_1137_4288" style="mask-type:alpha" maskUnits="userSpaceOnUse" x="230" y="738" width="116" height="42">
      <path d="M257.46 761.968c-5.437 4.453-9 11.866-10.688 17.96H230.859c2.034-10.613 7.897-21.76 17.628-29.147 10.807-8.173 23.928-12.253 39.641-12.253 15.713 0 28.887 4.08 39.508 12.253 9.664 7.387 15.487 18.534 17.508 29.147h-15.926c-1.848-6.667-5.942-14.48-12.297-19.147-7.723-5.666-17.321-8.506-28.793-8.506-12.549 0-22.772 3.24-30.668 9.693Z" fill="url(#paint60_linear_1137_4288)"></path>
    </mask>
    <g mask="url(#mask27_1137_4288)">
      <path fill="#fff" fill-opacity=".8" d="M219.77 719.928h130.381v69.5884H219.77z"></path>
    </g>
  </g>
  <rect x="459.515" y="728.8" width="116.12" height="116.12" rx="22.9494" fill="url(#paint61_linear_1137_4288)"></rect>
  <rect x="459.515" y="728.8" width="116.12" height="116.12" rx="22.9494" stroke="url(#paint62_linear_1137_4288)" stroke-width="1.54827"></rect>
  <g style="mix-blend-mode:overlay">
    <mask id="mask28_1137_4288" style="mask-type:alpha" maskUnits="userSpaceOnUse" x="460" y="792" width="115" height="43">
      <path d="M547.696 810.912c5.437-4.454 8.999-11.867 10.688-17.96H574.296c-2.034 10.613-7.896 21.76-17.627 29.146-10.808 8.173-23.942 12.253-39.642 12.253-15.699 0-28.873-4.08-39.508-12.253-9.664-7.386-15.487-18.533-17.507-29.146h15.925c1.848 6.666 5.942 14.48 12.297 19.146 7.723 5.667 17.321 8.507 28.793 8.507 12.55 0 22.772-3.24 30.669-9.693Z" fill="url(#paint63_linear_1137_4288)"></path>
    </mask>
    <g mask="url(#mask28_1137_4288)">
      <path fill="#fff" fill-opacity=".8" d="M449.93 784.343h135.038v58.7233H449.93z"></path>
    </g>
    <mask id="mask29_1137_4288" style="mask-type:alpha" maskUnits="userSpaceOnUse" x="460" y="738" width="115" height="42">
      <path d="M486.604 761.968c-5.437 4.453-9 11.866-10.688 17.96H460.004c2.034-10.613 7.896-21.76 17.627-29.147 10.808-8.173 23.928-12.253 39.641-12.253 15.713 0 28.887 4.08 39.509 12.253 9.664 7.387 15.486 18.534 17.507 29.147h-15.926c-1.847-6.667-5.942-14.48-12.296-19.147-7.724-5.666-17.321-8.506-28.794-8.506-12.549 0-22.771 3.24-30.668 9.693Z" fill="url(#paint64_linear_1137_4288)"></path>
    </mask>
    <g mask="url(#mask29_1137_4288)">
      <path fill="#fff" fill-opacity=".8" d="M448.914 719.928h130.381v69.5884H448.914z"></path>
    </g>
  </g>
  <rect x="688.659" y="728.8" width="116.12" height="116.12" rx="22.9494" fill="url(#paint65_linear_1137_4288)"></rect>
  <rect x="688.659" y="728.8" width="116.12" height="116.12" rx="22.9494" stroke="url(#paint66_linear_1137_4288)" stroke-width="1.54827"></rect>
  <g style="mix-blend-mode:overlay">
    <mask id="mask30_1137_4288" style="mask-type:alpha" maskUnits="userSpaceOnUse" x="689" y="792" width="115" height="43">
      <path d="M776.84 810.912c5.437-4.454 9-11.867 10.688-17.96H803.44c-2.033 10.613-7.896 21.76-17.627 29.146-10.807 8.173-23.941 12.253-39.641 12.253s-28.873-4.08-39.508-12.253c-9.665-7.386-15.487-18.533-17.508-29.146h15.926c1.848 6.666 5.942 14.48 12.296 19.146 7.724 5.667 17.322 8.507 28.794 8.507 12.549 0 22.772-3.24 30.668-9.693Z" fill="url(#paint67_linear_1137_4288)"></path>
    </mask>
    <g mask="url(#mask30_1137_4288)">
      <path fill="#fff" fill-opacity=".8" d="M679.074 784.343h135.038v58.7233H679.074z"></path>
    </g>
    <mask id="mask31_1137_4288" style="mask-type:alpha" maskUnits="userSpaceOnUse" x="689" y="738" width="115" height="42">
      <path d="M715.749 761.968c-5.437 4.453-9 11.866-10.688 17.96H689.148c2.034-10.613 7.897-21.76 17.628-29.147 10.807-8.173 23.928-12.253 39.641-12.253 15.713 0 28.887 4.08 39.508 12.253 9.664 7.387 15.487 18.534 17.508 29.147h-15.926c-1.848-6.667-5.942-14.48-12.297-19.147-7.723-5.666-17.321-8.506-28.793-8.506-12.549 0-22.772 3.24-30.668 9.693Z" fill="url(#paint68_linear_1137_4288)"></path>
    </mask>
    <g mask="url(#mask31_1137_4288)">
      <path fill="#fff" fill-opacity=".8" d="M678.059 719.928H808.44v69.5884H678.059z"></path>
    </g>
  </g>
  <defs>
    <linearGradient id="paint0_linear_1137_4288" x1="172.959" y1="243.089" x2="167.589" y2="687.95" gradientUnits="userSpaceOnUse">
      <stop stop-color="#2340AD"></stop>
      <stop offset="1" stop-color="#1A2970"></stop>
    </linearGradient>
    <linearGradient id="paint1_linear_1137_4288" x1="600.818" y1="262.781" x2="283.954" y2="309.326" gradientUnits="userSpaceOnUse">
      <stop stop-color="#2340AD"></stop>
      <stop offset="1" stop-color="#1A2970"></stop>
    </linearGradient>
    <linearGradient id="paint2_linear_1137_4288" x1="566.805" y1="265.466" x2="557.854" y2="637.825" gradientUnits="userSpaceOnUse">
      <stop stop-color="#2340AD"></stop>
      <stop offset="1" stop-color="#1A2970"></stop>
    </linearGradient>
    <linearGradient id="paint3_linear_1137_4288" x1="368.991" y1="218.026" x2="355.565" y2="655.727" gradientUnits="userSpaceOnUse">
      <stop stop-color="#2340AD"></stop>
      <stop offset="1" stop-color="#1A2970"></stop>
    </linearGradient>
    <linearGradient id="paint4_linear_1137_4288" x1="460.288" y1="361.241" x2="317.073" y2="485.659" gradientUnits="userSpaceOnUse">
      <stop stop-color="#2340AD"></stop>
      <stop offset="1" stop-color="#1A2970"></stop>
    </linearGradient>
    <linearGradient id="paint5_linear_1137_4288" x1="59.286" y1="1.85815" x2="59.286" y2="116.43" gradientUnits="userSpaceOnUse">
      <stop stop-color="#183084"></stop>
      <stop offset="1" stop-color="#121844"></stop>
    </linearGradient>
    <linearGradient id="paint6_linear_1137_4288" x1="59.286" y1="1.85815" x2="59.286" y2="116.43" gradientUnits="userSpaceOnUse">
      <stop stop-color="#223FAD"></stop>
      <stop offset="1" stop-color="#1A2970"></stop>
    </linearGradient>
    <linearGradient id="paint7_linear_1137_4288" x1="101.048" y1="68.2399" x2="58.8805" y2="93.3331" gradientUnits="userSpaceOnUse">
      <stop stop-color="#F1F1EB" stop-opacity="0"></stop>
      <stop offset="1"></stop>
    </linearGradient>
    <linearGradient id="paint8_linear_1137_4288" x1="12.8386" y1="45.4771" x2="58.886" y2="13.1405" gradientUnits="userSpaceOnUse">
      <stop stop-color="#F1F1EB" stop-opacity="0"></stop>
      <stop offset="1"></stop>
    </linearGradient>
    <linearGradient id="paint9_linear_1137_4288" x1="288.431" y1="1.85815" x2="288.431" y2="116.43" gradientUnits="userSpaceOnUse">
      <stop stop-color="#183084"></stop>
      <stop offset="1" stop-color="#121844"></stop>
    </linearGradient>
    <linearGradient id="paint10_linear_1137_4288" x1="288.431" y1="1.85815" x2="288.431" y2="116.43" gradientUnits="userSpaceOnUse">
      <stop stop-color="#223FAD"></stop>
      <stop offset="1" stop-color="#1A2970"></stop>
    </linearGradient>
    <linearGradient id="paint11_linear_1137_4288" x1="330.192" y1="68.2399" x2="288.025" y2="93.3331" gradientUnits="userSpaceOnUse">
      <stop stop-color="#F1F1EB" stop-opacity="0"></stop>
      <stop offset="1"></stop>
    </linearGradient>
    <linearGradient id="paint12_linear_1137_4288" x1="241.983" y1="45.4771" x2="288.031" y2="13.1405" gradientUnits="userSpaceOnUse">
      <stop stop-color="#F1F1EB" stop-opacity="0"></stop>
      <stop offset="1"></stop>
    </linearGradient>
    <linearGradient id="paint13_linear_1137_4288" x1="517.575" y1="1.85815" x2="517.575" y2="116.43" gradientUnits="userSpaceOnUse">
      <stop stop-color="#183084"></stop>
      <stop offset="1" stop-color="#121844"></stop>
    </linearGradient>
    <linearGradient id="paint14_linear_1137_4288" x1="517.575" y1="1.85815" x2="517.575" y2="116.43" gradientUnits="userSpaceOnUse">
      <stop stop-color="#223FAD"></stop>
      <stop offset="1" stop-color="#1A2970"></stop>
    </linearGradient>
    <linearGradient id="paint15_linear_1137_4288" x1="559.337" y1="68.2399" x2="517.17" y2="93.3331" gradientUnits="userSpaceOnUse">
      <stop stop-color="#F1F1EB" stop-opacity="0"></stop>
      <stop offset="1"></stop>
    </linearGradient>
    <linearGradient id="paint16_linear_1137_4288" x1="471.128" y1="45.4771" x2="517.175" y2="13.1405" gradientUnits="userSpaceOnUse">
      <stop stop-color="#F1F1EB" stop-opacity="0"></stop>
      <stop offset="1"></stop>
    </linearGradient>
    <linearGradient id="paint17_linear_1137_4288" x1="746.72" y1="1.85815" x2="746.72" y2="116.43" gradientUnits="userSpaceOnUse">
      <stop stop-color="#183084"></stop>
      <stop offset="1" stop-color="#121844"></stop>
    </linearGradient>
    <linearGradient id="paint18_linear_1137_4288" x1="746.72" y1="1.85815" x2="746.72" y2="116.43" gradientUnits="userSpaceOnUse">
      <stop stop-color="#223FAD"></stop>
      <stop offset="1" stop-color="#1A2970"></stop>
    </linearGradient>
    <linearGradient id="paint19_linear_1137_4288" x1="788.481" y1="68.2399" x2="746.314" y2="93.3331" gradientUnits="userSpaceOnUse">
      <stop stop-color="#F1F1EB" stop-opacity="0"></stop>
      <stop offset="1"></stop>
    </linearGradient>
    <linearGradient id="paint20_linear_1137_4288" x1="700.272" y1="45.4771" x2="746.32" y2="13.1405" gradientUnits="userSpaceOnUse">
      <stop stop-color="#F1F1EB" stop-opacity="0"></stop>
      <stop offset="1"></stop>
    </linearGradient>
    <linearGradient id="paint21_linear_1137_4288" x1="59.286" y1="244.43" x2="59.286" y2="359.002" gradientUnits="userSpaceOnUse">
      <stop stop-color="#183084"></stop>
      <stop offset="1" stop-color="#121844"></stop>
    </linearGradient>
    <linearGradient id="paint22_linear_1137_4288" x1="59.286" y1="244.43" x2="59.286" y2="359.002" gradientUnits="userSpaceOnUse">
      <stop stop-color="#223FAD"></stop>
      <stop offset="1" stop-color="#1A2970"></stop>
    </linearGradient>
    <linearGradient id="paint23_linear_1137_4288" x1="101.048" y1="310.812" x2="58.8805" y2="335.905" gradientUnits="userSpaceOnUse">
      <stop stop-color="#F1F1EB" stop-opacity="0"></stop>
      <stop offset="1"></stop>
    </linearGradient>
    <linearGradient id="paint24_linear_1137_4288" x1="12.8386" y1="288.049" x2="58.886" y2="255.713" gradientUnits="userSpaceOnUse">
      <stop stop-color="#F1F1EB" stop-opacity="0"></stop>
      <stop offset="1"></stop>
    </linearGradient>
    <linearGradient id="paint25_linear_1137_4288" x1="288.431" y1="244.43" x2="288.431" y2="359.002" gradientUnits="userSpaceOnUse">
      <stop stop-color="#183084"></stop>
      <stop offset="1" stop-color="#121844"></stop>
    </linearGradient>
    <linearGradient id="paint26_linear_1137_4288" x1="288.431" y1="244.43" x2="288.431" y2="359.002" gradientUnits="userSpaceOnUse">
      <stop stop-color="#223FAD"></stop>
      <stop offset="1" stop-color="#1A2970"></stop>
    </linearGradient>
    <linearGradient id="paint27_linear_1137_4288" x1="330.192" y1="310.812" x2="288.025" y2="335.905" gradientUnits="userSpaceOnUse">
      <stop stop-color="#F1F1EB" stop-opacity="0"></stop>
      <stop offset="1"></stop>
    </linearGradient>
    <linearGradient id="paint28_linear_1137_4288" x1="241.983" y1="288.049" x2="288.031" y2="255.713" gradientUnits="userSpaceOnUse">
      <stop stop-color="#F1F1EB" stop-opacity="0"></stop>
      <stop offset="1"></stop>
    </linearGradient>
    <linearGradient id="paint29_linear_1137_4288" x1="517.575" y1="244.43" x2="517.575" y2="359.002" gradientUnits="userSpaceOnUse">
      <stop stop-color="#183084"></stop>
      <stop offset="1" stop-color="#121844"></stop>
    </linearGradient>
    <linearGradient id="paint30_linear_1137_4288" x1="517.575" y1="244.43" x2="517.575" y2="359.002" gradientUnits="userSpaceOnUse">
      <stop stop-color="#223FAD"></stop>
      <stop offset="1" stop-color="#1A2970"></stop>
    </linearGradient>
    <linearGradient id="paint31_linear_1137_4288" x1="559.337" y1="310.812" x2="517.17" y2="335.905" gradientUnits="userSpaceOnUse">
      <stop stop-color="#F1F1EB" stop-opacity="0"></stop>
      <stop offset="1"></stop>
    </linearGradient>
    <linearGradient id="paint32_linear_1137_4288" x1="471.128" y1="288.049" x2="517.175" y2="255.713" gradientUnits="userSpaceOnUse">
      <stop stop-color="#F1F1EB" stop-opacity="0"></stop>
      <stop offset="1"></stop>
    </linearGradient>
    <linearGradient id="paint33_linear_1137_4288" x1="746.72" y1="244.43" x2="746.72" y2="359.002" gradientUnits="userSpaceOnUse">
      <stop stop-color="#183084"></stop>
      <stop offset="1" stop-color="#121844"></stop>
    </linearGradient>
    <linearGradient id="paint34_linear_1137_4288" x1="746.72" y1="244.43" x2="746.72" y2="359.002" gradientUnits="userSpaceOnUse">
      <stop stop-color="#223FAD"></stop>
      <stop offset="1" stop-color="#1A2970"></stop>
    </linearGradient>
    <linearGradient id="paint35_linear_1137_4288" x1="788.481" y1="310.812" x2="746.314" y2="335.905" gradientUnits="userSpaceOnUse">
      <stop stop-color="#F1F1EB" stop-opacity="0"></stop>
      <stop offset="1"></stop>
    </linearGradient>
    <linearGradient id="paint36_linear_1137_4288" x1="700.272" y1="288.049" x2="746.32" y2="255.713" gradientUnits="userSpaceOnUse">
      <stop stop-color="#F1F1EB" stop-opacity="0"></stop>
      <stop offset="1"></stop>
    </linearGradient>
    <linearGradient id="paint37_linear_1137_4288" x1="59.286" y1="487.002" x2="59.286" y2="601.574" gradientUnits="userSpaceOnUse">
      <stop stop-color="#183084"></stop>
      <stop offset="1" stop-color="#121844"></stop>
    </linearGradient>
    <linearGradient id="paint38_linear_1137_4288" x1="59.286" y1="487.002" x2="59.286" y2="601.574" gradientUnits="userSpaceOnUse">
      <stop stop-color="#223FAD"></stop>
      <stop offset="1" stop-color="#1A2970"></stop>
    </linearGradient>
    <linearGradient id="paint39_linear_1137_4288" x1="101.048" y1="553.384" x2="58.8805" y2="578.477" gradientUnits="userSpaceOnUse">
      <stop stop-color="#F1F1EB" stop-opacity="0"></stop>
      <stop offset="1"></stop>
    </linearGradient>
    <linearGradient id="paint40_linear_1137_4288" x1="12.8386" y1="530.621" x2="58.886" y2="498.285" gradientUnits="userSpaceOnUse">
      <stop stop-color="#F1F1EB" stop-opacity="0"></stop>
      <stop offset="1"></stop>
    </linearGradient>
    <linearGradient id="paint41_linear_1137_4288" x1="288.431" y1="487.002" x2="288.431" y2="601.574" gradientUnits="userSpaceOnUse">
      <stop stop-color="#183084"></stop>
      <stop offset="1" stop-color="#121844"></stop>
    </linearGradient>
    <linearGradient id="paint42_linear_1137_4288" x1="288.431" y1="487.002" x2="288.431" y2="601.574" gradientUnits="userSpaceOnUse">
      <stop stop-color="#223FAD"></stop>
      <stop offset="1" stop-color="#1A2970"></stop>
    </linearGradient>
    <linearGradient id="paint43_linear_1137_4288" x1="330.192" y1="553.384" x2="288.025" y2="578.477" gradientUnits="userSpaceOnUse">
      <stop stop-color="#F1F1EB" stop-opacity="0"></stop>
      <stop offset="1"></stop>
    </linearGradient>
    <linearGradient id="paint44_linear_1137_4288" x1="241.983" y1="530.621" x2="288.031" y2="498.285" gradientUnits="userSpaceOnUse">
      <stop stop-color="#F1F1EB" stop-opacity="0"></stop>
      <stop offset="1"></stop>
    </linearGradient>
    <linearGradient id="paint45_linear_1137_4288" x1="517.575" y1="487.002" x2="517.575" y2="601.574" gradientUnits="userSpaceOnUse">
      <stop stop-color="#183084"></stop>
      <stop offset="1" stop-color="#121844"></stop>
    </linearGradient>
    <linearGradient id="paint46_linear_1137_4288" x1="517.575" y1="487.002" x2="517.575" y2="601.574" gradientUnits="userSpaceOnUse">
      <stop stop-color="#223FAD"></stop>
      <stop offset="1" stop-color="#1A2970"></stop>
    </linearGradient>
    <linearGradient id="paint47_linear_1137_4288" x1="559.337" y1="553.384" x2="517.17" y2="578.477" gradientUnits="userSpaceOnUse">
      <stop stop-color="#F1F1EB" stop-opacity="0"></stop>
      <stop offset="1"></stop>
    </linearGradient>
    <linearGradient id="paint48_linear_1137_4288" x1="471.128" y1="530.621" x2="517.175" y2="498.285" gradientUnits="userSpaceOnUse">
      <stop stop-color="#F1F1EB" stop-opacity="0"></stop>
      <stop offset="1"></stop>
    </linearGradient>
    <linearGradient id="paint49_linear_1137_4288" x1="746.72" y1="487.002" x2="746.72" y2="601.574" gradientUnits="userSpaceOnUse">
      <stop stop-color="#183084"></stop>
      <stop offset="1" stop-color="#121844"></stop>
    </linearGradient>
    <linearGradient id="paint50_linear_1137_4288" x1="746.72" y1="487.002" x2="746.72" y2="601.574" gradientUnits="userSpaceOnUse">
      <stop stop-color="#223FAD"></stop>
      <stop offset="1" stop-color="#1A2970"></stop>
    </linearGradient>
    <linearGradient id="paint51_linear_1137_4288" x1="788.481" y1="553.384" x2="746.314" y2="578.477" gradientUnits="userSpaceOnUse">
      <stop stop-color="#F1F1EB" stop-opacity="0"></stop>
      <stop offset="1"></stop>
    </linearGradient>
    <linearGradient id="paint52_linear_1137_4288" x1="700.272" y1="530.621" x2="746.32" y2="498.285" gradientUnits="userSpaceOnUse">
      <stop stop-color="#F1F1EB" stop-opacity="0"></stop>
      <stop offset="1"></stop>
    </linearGradient>
    <linearGradient id="paint53_linear_1137_4288" x1="59.286" y1="729.574" x2="59.286" y2="844.146" gradientUnits="userSpaceOnUse">
      <stop stop-color="#183084"></stop>
      <stop offset="1" stop-color="#121844"></stop>
    </linearGradient>
    <linearGradient id="paint54_linear_1137_4288" x1="59.286" y1="729.574" x2="59.286" y2="844.146" gradientUnits="userSpaceOnUse">
      <stop stop-color="#223FAD"></stop>
      <stop offset="1" stop-color="#1A2970"></stop>
    </linearGradient>
    <linearGradient id="paint55_linear_1137_4288" x1="101.048" y1="795.956" x2="58.8805" y2="821.049" gradientUnits="userSpaceOnUse">
      <stop stop-color="#F1F1EB" stop-opacity="0"></stop>
      <stop offset="1"></stop>
    </linearGradient>
    <linearGradient id="paint56_linear_1137_4288" x1="12.8386" y1="773.193" x2="58.886" y2="740.857" gradientUnits="userSpaceOnUse">
      <stop stop-color="#F1F1EB" stop-opacity="0"></stop>
      <stop offset="1"></stop>
    </linearGradient>
    <linearGradient id="paint57_linear_1137_4288" x1="288.431" y1="729.574" x2="288.431" y2="844.146" gradientUnits="userSpaceOnUse">
      <stop stop-color="#183084"></stop>
      <stop offset="1" stop-color="#121844"></stop>
    </linearGradient>
    <linearGradient id="paint58_linear_1137_4288" x1="288.431" y1="729.574" x2="288.431" y2="844.146" gradientUnits="userSpaceOnUse">
      <stop stop-color="#223FAD"></stop>
      <stop offset="1" stop-color="#1A2970"></stop>
    </linearGradient>
    <linearGradient id="paint59_linear_1137_4288" x1="330.192" y1="795.956" x2="288.025" y2="821.049" gradientUnits="userSpaceOnUse">
      <stop stop-color="#F1F1EB" stop-opacity="0"></stop>
      <stop offset="1"></stop>
    </linearGradient>
    <linearGradient id="paint60_linear_1137_4288" x1="241.983" y1="773.193" x2="288.031" y2="740.857" gradientUnits="userSpaceOnUse">
      <stop stop-color="#F1F1EB" stop-opacity="0"></stop>
      <stop offset="1"></stop>
    </linearGradient>
    <linearGradient id="paint61_linear_1137_4288" x1="517.575" y1="729.574" x2="517.575" y2="844.146" gradientUnits="userSpaceOnUse">
      <stop stop-color="#183084"></stop>
      <stop offset="1" stop-color="#121844"></stop>
    </linearGradient>
    <linearGradient id="paint62_linear_1137_4288" x1="517.575" y1="729.574" x2="517.575" y2="844.146" gradientUnits="userSpaceOnUse">
      <stop stop-color="#223FAD"></stop>
      <stop offset="1" stop-color="#1A2970"></stop>
    </linearGradient>
    <linearGradient id="paint63_linear_1137_4288" x1="559.337" y1="795.956" x2="517.17" y2="821.049" gradientUnits="userSpaceOnUse">
      <stop stop-color="#F1F1EB" stop-opacity="0"></stop>
      <stop offset="1"></stop>
    </linearGradient>
    <linearGradient id="paint64_linear_1137_4288" x1="471.128" y1="773.193" x2="517.175" y2="740.857" gradientUnits="userSpaceOnUse">
      <stop stop-color="#F1F1EB" stop-opacity="0"></stop>
      <stop offset="1"></stop>
    </linearGradient>
    <linearGradient id="paint65_linear_1137_4288" x1="746.72" y1="729.574" x2="746.72" y2="844.146" gradientUnits="userSpaceOnUse">
      <stop stop-color="#183084"></stop>
      <stop offset="1" stop-color="#121844"></stop>
    </linearGradient>
    <linearGradient id="paint66_linear_1137_4288" x1="746.72" y1="729.574" x2="746.72" y2="844.146" gradientUnits="userSpaceOnUse">
      <stop stop-color="#223FAD"></stop>
      <stop offset="1" stop-color="#1A2970"></stop>
    </linearGradient>
    <linearGradient id="paint67_linear_1137_4288" x1="788.481" y1="795.956" x2="746.314" y2="821.049" gradientUnits="userSpaceOnUse">
      <stop stop-color="#F1F1EB" stop-opacity="0"></stop>
      <stop offset="1"></stop>
    </linearGradient>
    <linearGradient id="paint68_linear_1137_4288" x1="700.272" y1="773.193" x2="746.32" y2="740.857" gradientUnits="userSpaceOnUse">
      <stop stop-color="#F1F1EB" stop-opacity="0"></stop>
      <stop offset="1"></stop>
    </linearGradient>
  </defs>
</svg>