<svg width="48" height="48" viewBox="0 0 80 80" fill="none" xmlns="http://www.w3.org/2000/svg"><path d="M65.6667 31.6668v26.6668m-13.3334 0V31.6668m-36.6666 0v26.6668m13.3333 0V31.6668m33.579 26.6668H18.7543c-3.8346 0-7.2389 2.4537-8.4514 6.0914-.641 1.9226.7902 3.9086 2.8171 3.9086h55.0933c2.027 0 3.458-1.986 2.817-3.9086-1.2123-3.6377-4.6166-6.0914-8.4513-6.0914Zm5.5257-26.6668H13.2286C10.8932 31.6668 9 29.7736 9 27.4382c0-1.509.80407-2.9036 2.1099-3.6596L35.6563 9.56753c3.0994-1.7943 6.9214-1.7943 10.0207 0L70.2233 23.7786c1.306.756 2.11 2.1506 2.11 3.6596 0 2.3354-1.8933 4.2286-4.2286 4.2286Z" stroke="currentColor" stroke-width="2.5" stroke-linecap="square" stroke-linejoin="round"></path></svg>