<svg width="80" height="80" viewBox="0 0 80 80" fill="none" xmlns="http://www.w3.org/2000/svg"><path d="M40.0002 24.1667v-3.5185m0 35.1852v3.5186M48.3335 30c-1.521-2.1033-5.0773-4.074-8.3333-4.074-3.8077 0-8.7963 1.629-8.7963 6.2551 0 10.0183 17.5926 5.8019 17.5926 15.3693 0 4.5913-4.9287 6.5236-8.7963 6.5236-3.256 0-7.2754-1.9706-8.7963-4.074m40.4629-10c0 17.489-14.1776 31.6667-31.6666 31.6667C22.5111 71.6667 8.3335 57.489 8.3335 40c0-17.489 14.1776-31.66663 31.6667-31.66663C57.4892 8.33337 71.6668 22.511 71.6668 40Z" stroke="currentColor" stroke-width="2.5" stroke-linecap="round" stroke-linejoin="round"></path></svg>