<svg width="80" height="80" viewBox="0 0 81 80" fill="none" xmlns="http://www.w3.org/2000/svg"><path d="M12.0005 68.3329h3.4375s13.3012 4.193 21.5625 3.3333c9.0967-.9463 24.5117-11.3846 29.812-15.1456 1.1787-.8367 1.8547-2.1924 1.8547-3.6377 0-3.0857-2.99-5.288-5.937-4.373l-25.7297 7.9897M12.0005 48.3346l11.6667-3.3337c3.1831-1.1393 6.5759-1.5737 9.9434-1.2723l13.8262 1.2373c1.044.0937 1.7437 1.1163 1.4524 2.1233l-.0467.162c-1.232 4.2587-4.451 6.8564-8.6707 8.216l-3.1713 1.0217M42.7998 14.2551c-1.5606-3.4902-5.063-5.92209-9.1333-5.92209-5.5228 0-10 4.47719-10 9.99999s4.4772 10 10 10c1.5 0 2.923-.3303 4.2-.9221m4.9333-13.1558c.557 1.2453.8667 2.6255.8667 4.0779 0 4.0228-2.3753 7.4909-5.8 9.0779m4.9333-13.1558c1.277-.5918 2.7-.9221 4.2-.9221 5.523 0 10 4.4772 10 10s-4.477 10-10 10c-4.0703 0-7.5726-2.4319-9.1333-5.9221" stroke="currentColor" stroke-width="2.5" stroke-linecap="round" stroke-linejoin="round"></path></svg>