<svg width="48" height="48" viewBox="0 0 48 48" fill="none" xmlns="http://www.w3.org/2000/svg"><path d="M29.9909 29.6562c-3.1242 3.1243-8.1894 3.1243-11.3137 0" stroke="currentColor" stroke-width="2" stroke-linecap="square" stroke-linejoin="round"></path><path d="M24.3335 43c10.4934 0 19-8.5066 19-19s-8.5066-19-19-19-19 8.5066-19 19 8.5066 19 19 19Z" stroke="currentColor" stroke-width="2" stroke-linecap="round" stroke-linejoin="round"></path><path d="M18.3335 20c.5523 0 1-.4477 1-1s-.4477-1-1-1-1 .4477-1 1 .4477 1 1 1ZM30.3335 20c.5523 0 1-.4477 1-1s-.4477-1-1-1-1 .4477-1 1 .4477 1 1 1Z" stroke="currentColor" stroke-width="2"></path></svg>