<svg width="48" height="48" viewBox="0 0 48 48" fill="none" xmlns="http://www.w3.org/2000/svg"><path d="m19.9988 38.0008-.3432.343c-3.1241 3.1242-8.1895 3.1242-11.31366 0l-.6863-.6862c-3.12418-3.1242-3.1242-8.1896 0-11.3138l6.68626-6.6862c3.1242-3.1242 8.1895-3.1242 11.3137 0l.6864.6862c1.3072 1.3074 2.0674 2.9544 2.2808 4.657" stroke="currentColor" stroke-width="1.875" stroke-linecap="round" stroke-linejoin="round"></path><path d="M19.375 25.0008c.2133 1.7024.9736 3.3496 2.2808 4.6568l.6862.6862c3.1242 3.1242 8.1896 3.1242 11.3138 0l6.6862-6.6862c3.1242-3.1242 3.1242-8.1895 0-11.3137l-.6862-.6863c-3.1242-3.1242-8.1896-3.1242-11.3138 0l-.343.3431" stroke="currentColor" stroke-width="1.875" stroke-linecap="round" stroke-linejoin="round"></path></svg>