<svg width="24" height="24" viewBox="0 0 24 24" fill="none" xmlns="http://www.w3.org/2000/svg"><mask id="path-1-inside-1_138_1452" fill="#fff"><path fill-rule="evenodd" clip-rule="evenodd" d="M6 2.25h12c2.0711 0 3.75 1.67893 3.75 3.75v12c0 2.0711-1.6789 3.75-3.75 3.75H6c-2.07107 0-3.75-1.6789-3.75-3.75V6c0-2.07107 1.67893-3.75 3.75-3.75ZM0 6c0-3.31371 2.68629-6 6-6h12c3.3137 0 6 2.68629 6 6v12c0 3.3137-2.6863 6-6 6H6c-3.31371 0-6-2.6863-6-6V6Zm11.9998 10.836c2.29 0 4.2082-1.5917 4.7087-3.7291h2.2913c-.5314 3.3877-3.463 5.9791-7 5.9791-3.53687 0-6.46853-2.5914-6.99992-5.9791h2.29131c.50048 2.1374 2.41869 3.7291 4.70861 3.7291Zm0-9.67182c-2.28968 0-4.20772 1.59135-4.70845 3.72842H4.99998c.53168-3.38739 3.46319-5.97842 6.99982-5.97842 3.5367 0 6.4682 2.59103 6.9999 5.97842h-2.2914c-.5007-2.13707-2.4187-3.72842-4.7085-3.72842Z"></path></mask><path d="M16.7085 13.1069v-2h-1.5858l-.3615 1.5441 1.9473.4559Zm2.2913 0 1.9759.31.3623-2.31h-2.3382v2Zm-13.99992 0v-2H2.66171l.36233 2.31 1.97584-.31Zm2.29131 0 1.94733-.4559-.36154-1.5441H7.29119v2Zm.00016-2.2143v2H8.8769l.36171-1.5438-1.94726-.4562Zm-2.29137 0-1.97581-.3101-.36259 2.3101h2.3384v-2Zm13.99972 0v2h2.3384l-.3626-2.3101-1.9758.3101Zm-2.2914 0-1.9472.4562.3617 1.5438h1.5855v-2ZM18 .25H6v4h12v-4ZM23.75 6c0-3.17564-2.5744-5.75-5.75-5.75v4c.9665 0 1.75.7835 1.75 1.75h4Zm0 12V6h-4v12h4ZM18 23.75c3.1756 0 5.75-2.5744 5.75-5.75h-4c0 .9665-.7835 1.75-1.75 1.75v4Zm-12 0h12v-4H6v4ZM.25 18c0 3.1756 2.57436 5.75 5.75 5.75v-4c-.9665 0-1.75-.7835-1.75-1.75h-4Zm0-12v12h4V6h-4ZM6 .25C2.82436.25.25 2.82436.25 6h4c0-.9665.7835-1.75 1.75-1.75v-4ZM6-2C1.58172-2-2 1.58172-2 6h4c0-2.20914 1.79086-4 4-4v-4Zm12 0H6v4h12v-4Zm8 8c0-4.41828-3.5817-8-8-8v4c2.2091 0 4 1.79086 4 4h4Zm0 12V6h-4v12h4Zm-8 8c4.4183 0 8-3.5817 8-8h-4c0 2.2091-1.7909 4-4 4v4ZM6 26h12v-4H6v4Zm-8-8c0 4.4183 3.58172 8 8 8v-4c-2.20914 0-4-1.7909-4-4h-4Zm0-12v12h4V6h-4Zm16.7612 6.651c-.2935 1.2532-1.421 2.185-2.7614 2.185v4c3.2397 0 5.9485-2.2516 6.656-5.2731l-3.8946-.9119Zm4.2386-1.5441h-2.2913v4h2.2913v-4Zm-7 9.9791c4.5371 0 8.2942-3.3236 8.9759-7.6691l-3.9517-.6199c-.3812 2.4298-2.4874 4.289-5.0242 4.289v4Zm-8.97576-7.6691c.68164 4.3455 4.43873 7.6691 8.97576 7.6691v-4c-2.5367 0-4.64294-1.8592-5.02408-4.289l-3.95168.6199Zm4.26715-2.31H4.99988v4h2.29131v-4Zm4.70861 3.7291c-1.3403 0-2.46782-.9318-2.76128-2.185l-3.89466.9119c.7075 3.0215 3.41637 5.2731 6.65594 5.2731v-4Zm-2.76119-3.4872c.29361-1.2531 1.42109-2.18462 2.76119-2.18462v-4c-3.23923 0-5.94787 2.25114-6.65571 5.27212l3.89452.9125Zm-4.23863 1.5438h2.29137V8.89258H4.99998v4.00002Zm6.99982-9.97842c-4.53673 0-8.29362 3.32313-8.97563 7.66832l3.95162.6202c.38135-2.4296 2.48748-4.28852 5.02401-4.28852v-4Zm8.9757 7.66832c-.682-4.34519-4.4389-7.66832-8.9757-7.66832v4c2.5366 0 4.6428 1.85892 5.0241 4.28852l3.9516-.6202Zm-4.2672 2.3101h2.2914V8.89258h-2.2914v4.00002Zm-4.7085-3.72842c1.3402 0 2.4677.93152 2.7613 2.18462l3.8945-.9125c-.7078-3.02098-3.4165-5.27212-6.6558-5.27212v4Z" fill="currentColor" mask="url(#path-1-inside-1_138_1452)"></path></svg>