<svg width="80" height="80" viewBox="0 0 80 80" fill="none" xmlns="http://www.w3.org/2000/svg"><path d="M64.9997 43.3333C47.641 44.836 38.169 54.308 36.6663 71.6667 35.1003 54.038 25.6779 45.298 8.33301 43.3333 25.952 41.3013 34.6343 32.619 36.6663 15 38.631 32.3449 47.371 41.7673 64.9997 43.3333Z" stroke="currentColor" stroke-width="2.5" stroke-linecap="round" stroke-linejoin="round"></path><path d="M65.6437 3.90821c-.037-.3274-.314-.57487-.6434-.5752-.3293-.00034-.6066.24656-.6446.5739-.3847 3.3375-1.3887 5.73663-3.0504 7.39829-1.6616 1.6616-4.061 2.6656-7.3983 3.0506-.3273.0377-.5743.315-.574.6445.0003.3295.2477.6063.5753.6434 3.2834.3719 5.7304 1.3753 7.429 3.0433 1.695 1.6642 2.7217 4.0653 3.0167 7.3885.0297.3347.3103.5912.6463.5908.336-.0003.616-.2575.645-.5922.283-3.27 1.3087-5.7184 3.0097-7.4192 1.7007-1.7008 4.149-2.7264 7.419-3.0095.335-.029.592-.309.5923-.645.0004-.336-.256-.6166-.5906-.6463-3.3234-.2952-5.7244-1.3219-7.3887-3.0167-1.668-1.69873-2.6713-4.14566-3.0433-7.42919Z" fill="currentColor"></path></svg>