<svg width="48" height="48" viewBox="0 0 48 48" fill="none" xmlns="http://www.w3.org/2000/svg"><path d="M28.8472 26.3608c6.2684-2.6036 14.0568.6986 16.47 9.9064.5882 2.2442-1.292 4.2328-3.6118 4.2328H32.497m-11-26.5c0 3.5899-2.9101 6.5-6.5 6.5-3.5898 0-6.49998-2.9101-6.49998-6.5S11.4072 7.5 14.997 7.5c3.5899 0 6.5 2.9101 6.5 6.5Zm18 0c0 3.5899-2.9102 6.5-6.5 6.5s-6.5-2.9101-6.5-6.5 2.9102-6.5 6.5-6.5 6.5 2.9101 6.5 6.5ZM23.4194 40.5H6.28892c-2.3199 0-4.19866-1.999-3.60934-4.2428 3.76706-14.343 20.58202-14.343 24.34922 0C27.618 38.501 25.7394 40.5 23.4194 40.5Z" stroke="currentColor" stroke-width="1.875" stroke-linecap="round" stroke-linejoin="round"></path></svg>