<svg width="32" height="32" viewBox="0 0 32 32" fill="none" xmlns="http://www.w3.org/2000/svg"><path d="M31.6812 9.60002s-.3124-2.20625-1.275-3.175c-1.2187-1.275-2.5812-1.28125-3.2062-1.35625-4.475-.325-11.1937-.325-11.1937-.325h-.0126s-6.7187 0-11.1937.325c-.625.075-1.9875.08125-3.20625 1.35625C.63125 7.39377.325 9.60002.325 9.60002S0 12.1938 0 14.7813v2.425c0 2.5875.31875 5.1812.31875 5.1812s.3125 2.2063 1.26875 3.175c1.21875 1.275 2.81875 1.2313 3.53125 1.3688C7.68125 27.175 16 27.25 16 27.25s6.725-.0125 11.2-.3312c.625-.075 1.9875-.0813 3.2062-1.3563.9626-.9687 1.275-3.175 1.275-3.175S32 19.8 32 17.2063v-2.425c0-2.5875-.3188-5.18128-.3188-5.18128ZM12.6938 20.15v-8.9937l8.6437 4.5125-8.6437 4.4812Z" fill="currentColor"></path></svg>